<svg width="23" height="23" viewBox="0 0 23 23" fill="none" xmlns="http://www.w3.org/2000/svg">
<path d="M12.2991 1.50619L14.87 6.6964C14.9285 6.82813 15.0204 6.94224 15.1368 7.02735C15.2531 7.11246 15.3897 7.1656 15.5329 7.18146L21.2082 8.02225C21.3725 8.04337 21.5274 8.11081 21.6549 8.21669C21.7823 8.32257 21.877 8.46252 21.9278 8.62019C21.9787 8.77787 21.9837 8.94676 21.9421 9.10715C21.9006 9.26753 21.8143 9.41279 21.6933 9.52595L17.6025 13.5843C17.4981 13.6819 17.4198 13.804 17.3746 13.9395C17.3294 14.0751 17.3188 14.2198 17.3438 14.3604L18.3301 20.0681C18.3587 20.2321 18.3406 20.4008 18.278 20.555C18.2154 20.7093 18.1108 20.8429 17.976 20.9406C17.8412 21.0383 17.6817 21.0962 17.5157 21.1078C17.3496 21.1193 17.1836 21.084 17.0366 21.0059L11.9273 18.3056C11.7964 18.2414 11.6526 18.208 11.5069 18.208C11.3611 18.208 11.2173 18.2414 11.0865 18.3056L5.97711 21.0059C5.83011 21.084 5.66414 21.1193 5.49807 21.1078C5.33199 21.0962 5.1725 21.0383 5.03772 20.9406C4.90294 20.8429 4.7983 20.7093 4.73569 20.555C4.67309 20.4008 4.65504 20.2321 4.6836 20.0681L5.6699 14.2958C5.6949 14.1551 5.68432 14.0104 5.63914 13.8749C5.59396 13.7393 5.5156 13.6172 5.4112 13.5197L1.27196 9.52595C1.1495 9.40969 1.06339 9.26041 1.02404 9.09621C0.984689 8.932 0.9938 8.7599 1.05027 8.60077C1.10674 8.44163 1.20814 8.30228 1.34219 8.1996C1.47624 8.09692 1.63719 8.03532 1.80554 8.02225L7.48081 7.18146C7.62407 7.1656 7.76066 7.11246 7.87697 7.02735C7.99329 6.94224 8.08527 6.82813 8.14374 6.6964L10.7146 1.50619C10.7846 1.35502 10.8964 1.22704 11.0368 1.13735C11.1772 1.04766 11.3403 1 11.5069 1C11.6735 1 11.8366 1.04766 11.9769 1.13735C12.1173 1.22704 12.2291 1.35502 12.2991 1.50619V1.50619Z" stroke="#13A4D2" stroke-width="2" stroke-linecap="round" stroke-linejoin="round"/>
</svg>
